<?xml version="1.0" encoding="UTF-8"?>
<svg width="66px" height="66px" viewBox="0 0 66 66" version="1.1" xmlns="http://www.w3.org/2000/svg" xmlns:xlink="http://www.w3.org/1999/xlink">
    <!-- Generator: Sketch 48.2 (47327) - http://www.bohemiancoding.com/sketch -->
    <title>Refresh Clock - Webby</title>
    <desc>Created with Sketch.</desc>
    <defs></defs>
    <g id="99.0-Home" stroke="none" stroke-width="1" fill="none" fill-rule="evenodd" transform="translate(-308.000000, -1463.000000)">
        <g id="Why-choseing-YNG?" transform="translate(0.000000, 1232.000000)">
            <g id="Benefit" transform="translate(251.000000, 232.000000)">
                <g id="Refresh-Clock---Webby" transform="translate(58.000000, 0.000000)">
                    <polyline id="Stroke-4077" stroke="#F44958" stroke-width="2" points="29.7931034 59.5859862 29.7931034 51.8618483 37.5172414 51.8618483"></polyline>
                    <path d="M34.2067862,40.8273655 C36.633269,38.0786759 40.1830621,36.4135724 44.1378207,36.4135724 C51.4514759,36.4135724 57.3792,42.3424 57.3792,49.6549517 C57.3792,56.9675034 51.4514759,62.896331 44.1378207,62.896331 C37.5767172,62.896331 31.9469241,58.1250207 30.8964414,51.8618483" id="Stroke-4078" stroke="#F44958" stroke-width="2" stroke-linecap="round"></path>
                    <path d="M28.6896552,31.9997793 L19.862069,31.9997793" id="Stroke-5736" stroke="#F44958" stroke-width="2" stroke-linecap="round" stroke-linejoin="round"></path>
                    <path d="M32,28.5555862 L32,16.4176552" id="Stroke-5737" stroke="#F44958" stroke-width="2" stroke-linecap="round" stroke-linejoin="round"></path>
                    <path d="M28.6896552,31.865931 C28.6896552,33.6943448 30.1715862,35.1762759 32,35.1762759 C33.8284138,35.1762759 35.3103448,33.6943448 35.3103448,31.865931 C35.3103448,30.0375172 33.8284138,28.5555862 32,28.5555862 C30.1715862,28.5555862 28.6896552,30.0375172 28.6896552,31.865931" id="Fill-5738" fill-opacity="0.24" fill="#F44958" fill-rule="nonzero"></path>
                    <path d="M28.6896552,31.865931 C28.6896552,33.6943448 30.1715862,35.1762759 32,35.1762759 C33.8284138,35.1762759 35.3103448,33.6943448 35.3103448,31.865931 C35.3103448,30.0375172 33.8284138,28.5555862 32,28.5555862 C30.1715862,28.5555862 28.6896552,30.0375172 28.6896552,31.865931 Z" id="Stroke-5739" stroke="#F44958" stroke-width="2" stroke-linecap="round" stroke-linejoin="round"></path>
                    <path d="M32,7.59006897 L32,8.69351724" id="Stroke-5740" stroke="#F44958" stroke-width="2" stroke-linecap="round"></path>
                    <path d="M56.2758621,31.865931 L55.1724138,31.865931" id="Stroke-5741" stroke="#F44958" stroke-width="2" stroke-linecap="round"></path>
                    <path d="M8.82758621,31.865931 L7.72413793,31.865931" id="Stroke-5742" stroke="#F44958" stroke-width="2" stroke-linecap="round"></path>
                    <path d="M49.1655724,14.7002483 L48.3854345,15.4803862" id="Stroke-5743" stroke="#F44958" stroke-width="2" stroke-linecap="round"></path>
                    <path d="M15.6146759,48.2512552 L14.8345379,49.0313931" id="Stroke-5744" stroke="#F44958" stroke-width="2" stroke-linecap="round"></path>
                    <path d="M15.6146759,15.4806069 L14.8345379,14.700469" id="Stroke-5745" stroke="#F44958" stroke-width="2" stroke-linecap="round"></path>
                    <path d="M61.8481655,43.5353379 C63.2329931,39.9557517 63.9998897,36.0683034 63.9998897,31.9998897 C63.9998897,14.3270621 49.6727172,-0.000110344828 31.9998897,-0.000110344828 C14.3270621,-0.000110344828 -0.000110344827,14.3270621 -0.000110344827,31.9998897 C-0.000110344827,47.0100966 10.3358897,59.6070621 24.2790621,63.0619586" id="Stroke-5746" stroke="#F44958" stroke-width="2" stroke-linecap="round" stroke-linejoin="round"></path>
                </g>
            </g>
        </g>
    </g>
</svg>