<?xml version="1.0" encoding="UTF-8"?>
<svg width="54px" height="66px" viewBox="0 0 54 66" version="1.1" xmlns="http://www.w3.org/2000/svg" xmlns:xlink="http://www.w3.org/1999/xlink">
    <!-- Generator: Sketch 48.2 (47327) - http://www.bohemiancoding.com/sketch -->
    <title>Phone Video - Webby</title>
    <desc>Created with Sketch.</desc>
    <defs></defs>
    <g id="99.0-Home" stroke="none" stroke-width="1" fill="none" fill-rule="evenodd" transform="translate(-712.000000, -1463.000000)">
        <g id="Why-choseing-YNG?" transform="translate(0.000000, 1232.000000)">
            <g id="Benefit" transform="translate(649.000000, 232.000000)">
                <g id="Phone-Video---Webby" transform="translate(64.500000, 0.000000)">
                    <path d="M23.6263724,38.6206897 C21.5474759,38.6206897 19.8625103,36.9357241 19.8625103,34.8568276 L19.8625103,18.1086897 C19.8625103,16.0297931 21.5474759,14.3448276 23.6263724,14.3448276 L35.3107862,14.3448276 L35.3107862,3.94372414 C35.3107862,1.76551724 33.545269,0 31.3670621,0 L3.94306207,0 C1.76595862,0 0.00044137931,1.76551724 0.00044137931,3.94372414 L0.00044137931,60.7315862 C0.00044137931,62.5368276 1.46251034,64 3.26775172,64 L32.0423724,64 C33.8476138,64 35.3107862,62.5368276 35.3107862,60.7315862 L35.3107862,38.6206897 L23.6263724,38.6206897 Z" id="Fill-49" fill="#FFFFFF" fill-rule="nonzero"></path>
                    <path d="M23.6263724,38.6206897 C21.5474759,38.6206897 19.8625103,36.9357241 19.8625103,34.8568276 L19.8625103,18.1086897 C19.8625103,16.0297931 21.5474759,14.3448276 23.6263724,14.3448276 L35.3107862,14.3448276 L35.3107862,3.94372414 C35.3107862,1.76551724 33.545269,0 31.3670621,0 L3.94306207,0 C1.76595862,0 0.00044137931,1.76551724 0.00044137931,3.94372414 L0.00044137931,60.7315862 C0.00044137931,62.5368276 1.46251034,64 3.26775172,64 L32.0423724,64 C33.8476138,64 35.3107862,62.5368276 35.3107862,60.7315862 L35.3107862,38.6206897 L23.6263724,38.6206897 Z" id="Stroke-51" stroke="#F44958" stroke-width="2" stroke-linecap="round" stroke-linejoin="round"></path>
                    <path d="M18.6682483,59.5862069 L16.6423172,59.5862069 C15.9824552,59.5862069 15.4483862,59.0521379 15.4483862,58.3922759 L15.4483862,56.3663448 C15.4483862,55.7064828 15.9824552,55.1724138 16.6423172,55.1724138 L18.6682483,55.1724138 C19.3281103,55.1724138 19.8621793,55.7064828 19.8621793,56.3663448 L19.8621793,58.3922759 C19.8621793,59.0521379 19.3281103,59.5862069 18.6682483,59.5862069" id="Fill-2372" fill-opacity="0.24" fill="#599AC1" fill-rule="nonzero"></path>
                    <path d="M18.6682483,59.5862069 L16.6423172,59.5862069 C15.9824552,59.5862069 15.4483862,59.0521379 15.4483862,58.3922759 L15.4483862,56.3663448 C15.4483862,55.7064828 15.9824552,55.1724138 16.6423172,55.1724138 L18.6682483,55.1724138 C19.3281103,55.1724138 19.8621793,55.7064828 19.8621793,56.3663448 L19.8621793,58.3922759 C19.8621793,59.0521379 19.3281103,59.5862069 18.6682483,59.5862069 Z" id="Stroke-2373" stroke="#F44958" stroke-width="2" stroke-linecap="round" stroke-linejoin="round"></path>
                    <path d="M0,6.62068966 L8.82758621,6.62068966" id="Stroke-2374" stroke="#F44958" stroke-width="2" stroke-linecap="round"></path>
                    <path d="M0,51.862069 L0,60.7315862 C0,62.5368276 1.46317241,64 3.26841379,64 L32.041931,64 C33.8471724,64 35.3103448,62.5368276 35.3103448,60.7315862 L35.3103448,51.862069 L0,51.862069 Z" id="Stroke-2375" stroke="#F44958" stroke-width="2" stroke-linecap="round"></path>
                    <path d="M46.9942069,38.6206897 L23.6264828,38.6206897 C21.5475862,38.6206897 19.8615172,36.9357241 19.8615172,34.8568276 L19.8615172,18.1086897 C19.8615172,16.0297931 21.5475862,14.3448276 23.6264828,14.3448276 L46.9942069,14.3448276 C49.0731034,14.3448276 50.758069,16.0297931 50.758069,18.1086897 L50.758069,34.8568276 C50.758069,36.9357241 49.0731034,38.6206897 46.9942069,38.6206897" id="Fill-3063" fill-opacity="0.24" fill="#F44958" fill-rule="nonzero"></path>
                    <path d="M23.6264828,38.6206897 C21.5475862,38.6206897 19.8615172,36.9357241 19.8615172,34.8568276 L19.8615172,18.1086897 C19.8615172,16.0297931 21.5475862,14.3448276 23.6264828,14.3448276 L46.9942069,14.3448276 C49.0731034,14.3448276 50.758069,16.0297931 50.758069,18.1086897 L50.758069,34.8568276 C50.758069,36.9357241 49.0731034,38.6206897 46.9942069,38.6206897 L23.6264828,38.6206897 Z" id="Stroke-3064" stroke="#F44958" stroke-width="2" stroke-linecap="round" stroke-linejoin="round"></path>
                    <polygon id="Fill-3065" fill="#FFFFFF" fill-rule="nonzero" points="33.1034483 29.7931034 33.1034483 23.1724138 38.6206897 26.4827586"></polygon>
                    <polygon id="Stroke-3066" stroke="#F44958" stroke-width="2" stroke-linecap="round" stroke-linejoin="round" points="33.1034483 29.7931034 33.1034483 23.1724138 38.6206897 26.4827586"></polygon>
                </g>
            </g>
        </g>
    </g>
</svg>