<?xml version="1.0" encoding="UTF-8"?>
<svg width="64px" height="66px" viewBox="0 0 64 66" version="1.1" xmlns="http://www.w3.org/2000/svg" xmlns:xlink="http://www.w3.org/1999/xlink">
    <!-- Generator: Sketch 48.2 (47327) - http://www.bohemiancoding.com/sketch -->
    <title>Messages - Webby</title>
    <desc>Created with Sketch.</desc>
    <defs></defs>
    <g id="99.0-Home" stroke="none" stroke-width="1" fill="none" fill-rule="evenodd" transform="translate(-906.000000, -1463.000000)">
        <g id="Why-choseing-YNG?" transform="translate(0.000000, 1232.000000)">
            <g id="Benefit" transform="translate(848.000000, 232.000000)">
                <g id="Messages---Webby" transform="translate(59.500000, 0.000000)">
                    <path d="M19.7818182,2.32727273 C9.49876364,2.32727273 1.16363636,10.6624 1.16363636,20.9454545 C1.16363636,26.8218182 3.89236364,32.0546909 8.14545455,35.4664727 L8.14545455,44.2181818 L13.7995636,38.5640727 C15.68,39.2017455 17.6861091,39.5636364 19.7818182,39.5636364 C30.0648727,39.5636364 38.4,31.2285091 38.4,20.9454545 C38.4,10.6624 30.0648727,2.32727273 19.7818182,2.32727273" id="Fill-1406" fill-opacity="0.24" fill="#F44958" fill-rule="nonzero"></path>
                    <path d="M19.7818182,2.32727273 C9.49876364,2.32727273 1.16363636,10.6624 1.16363636,20.9454545 C1.16363636,26.8218182 3.89236364,32.0546909 8.14545455,35.4664727 L8.14545455,44.2181818 L13.7995636,38.5640727 C15.68,39.2017455 17.6861091,39.5636364 19.7818182,39.5636364 C30.0648727,39.5636364 38.4,31.2285091 38.4,20.9454545 C38.4,10.6624 30.0648727,2.32727273 19.7818182,2.32727273 Z" id="Stroke-1407" stroke="#F44958" stroke-width="2" stroke-linecap="round" stroke-linejoin="round"></path>
                    <path d="M30.2545455,2.32727273 L30.2545455,5.55403636 C35.1697455,8.90530909 38.4,14.5466182 38.4,20.9454545 C38.4,27.3442909 35.1697455,32.9856 30.2545455,36.3368727 L30.2545455,41.8909091 L33.7454545,41.8909091 L33.7454545,48.8727273 L40.7272727,41.8909091 L58.1818182,41.8909091 C59.4676364,41.8909091 60.5090909,40.8494545 60.5090909,39.5636364 L60.5090909,2.32727273 C60.5090909,1.04145455 59.4676364,0 58.1818182,0 L32.5818182,0 C31.296,0 30.2545455,1.04145455 30.2545455,2.32727273" id="Fill-1408" fill="#FFFFFF" fill-rule="nonzero"></path>
                    <path d="M30.2545455,2.32727273 L30.2545455,5.55403636 C35.1697455,8.90530909 38.4,14.5466182 38.4,20.9454545 C38.4,27.3442909 35.1697455,32.9856 30.2545455,36.3368727 L30.2545455,41.8909091 L33.7454545,41.8909091 L33.7454545,48.8727273 L40.7272727,41.8909091 L58.1818182,41.8909091 C59.4676364,41.8909091 60.5090909,40.8494545 60.5090909,39.5636364 L60.5090909,2.32727273 C60.5090909,1.04145455 59.4676364,0 58.1818182,0 L32.5818182,0 C31.296,0 30.2545455,1.04145455 30.2545455,2.32727273 Z" id="Stroke-1409" stroke="#F44958" stroke-width="2" stroke-linecap="round" stroke-linejoin="round"></path>
                    <path d="M33.7454545,41.8909091 L30.2545455,41.8909091 L30.2545455,36.3368727 C27.2698182,38.3709091 23.6660364,39.5636364 19.7818182,39.5636364 C17.6861091,39.5636364 15.68,39.2017455 13.7995636,38.5640727 L8.14545455,44.2181818 L8.14545455,35.4664727 C6.70952727,34.3144727 5.4656,32.9402182 4.42414545,31.4181818 L2.32727273,31.4181818 C1.04145455,31.4181818 0,32.4596364 0,33.7454545 L0,54.6909091 C0,55.9767273 1.04145455,57.0181818 2.32727273,57.0181818 L2.32727273,64 L9.30909091,57.0181818 L34.9090909,57.0181818 C36.1949091,57.0181818 37.2363636,55.9767273 37.2363636,54.6909091 L37.2363636,45.3818182 L33.7454545,48.8727273 L33.7454545,41.8909091 Z" id="Fill-1410" fill="#FFFFFF" fill-rule="nonzero"></path>
                    <path d="M33.7454545,41.8909091 L30.2545455,41.8909091 L30.2545455,36.3368727 C27.2698182,38.3709091 23.6660364,39.5636364 19.7818182,39.5636364 C17.6861091,39.5636364 15.68,39.2017455 13.7995636,38.5640727 L8.14545455,44.2181818 L8.14545455,35.4664727 C6.70952727,34.3144727 5.4656,32.9402182 4.42414545,31.4181818 L2.32727273,31.4181818 C1.04145455,31.4181818 0,32.4596364 0,33.7454545 L0,54.6909091 C0,55.9767273 1.04145455,57.0181818 2.32727273,57.0181818 L2.32727273,64 L9.30909091,57.0181818 L34.9090909,57.0181818 C36.1949091,57.0181818 37.2363636,55.9767273 37.2363636,54.6909091 L37.2363636,45.3818182 L33.7454545,48.8727273 L33.7454545,41.8909091 Z" id="Stroke-1411" stroke="#F44958" stroke-width="2" stroke-linecap="round" stroke-linejoin="round"></path>
                    <path d="M45.3818182,9.30909091 L53.5272727,9.30909091" id="Stroke-1412" stroke="#F44958" stroke-width="2" stroke-linecap="round" stroke-linejoin="round"></path>
                    <path d="M34.9090909,9.30909091 L40.7272727,9.30909091" id="Stroke-1413" stroke="#F44958" stroke-width="2" stroke-linecap="round" stroke-linejoin="round"></path>
                    <path d="M50.0362473,15.1272727 L53.5271564,15.1272727" id="Stroke-1414" stroke="#F44958" stroke-width="2" stroke-linecap="round" stroke-linejoin="round"></path>
                    <path d="M38.4,15.1272727 L45.3818182,15.1272727" id="Stroke-1415" stroke="#F44958" stroke-width="2" stroke-linecap="round" stroke-linejoin="round"></path>
                    <path d="M46.5454545,20.9454545 L53.5272727,20.9454545" id="Stroke-1416" stroke="#F44958" stroke-width="2" stroke-linecap="round" stroke-linejoin="round"></path>
                    <path d="M39.5636364,20.9454545 L41.8909091,20.9454545" id="Stroke-1417" stroke="#F44958" stroke-width="2" stroke-linecap="round" stroke-linejoin="round"></path>
                    <path d="M50.0363636,26.7636364 L53.5272727,26.7636364" id="Stroke-1418" stroke="#F44958" stroke-width="2" stroke-linecap="round" stroke-linejoin="round"></path>
                    <path d="M38.4,26.7636364 L45.3818182,26.7636364" id="Stroke-1419" stroke="#F44958" stroke-width="2" stroke-linecap="round" stroke-linejoin="round"></path>
                    <path d="M47.7088582,32.5818182 L53.52704,32.5818182" id="Stroke-1420" stroke="#F44958" stroke-width="2" stroke-linecap="round" stroke-linejoin="round"></path>
                    <path d="M34.9090909,32.5818182 L43.0545455,32.5818182" id="Stroke-1421" stroke="#F44958" stroke-width="2" stroke-linecap="round" stroke-linejoin="round"></path>
                    <path d="M23.2727273,15.1272727 L29.0909091,15.1272727" id="Stroke-1422" stroke="#F44958" stroke-width="2" stroke-linecap="round" stroke-linejoin="round"></path>
                    <polyline id="Stroke-1423" stroke="#F44958" stroke-width="2" stroke-linecap="round" stroke-linejoin="round" points="10.4727273 15.1272727 18.6181818 15.1272727 18.6181818 15.1272727"></polyline>
                    <path d="M27.9266909,20.9454545 L29.0903273,20.9454545" id="Stroke-1424" stroke="#F44958" stroke-width="2" stroke-linecap="round" stroke-linejoin="round"></path>
                    <path d="M18.6181818,20.9454545 L23.2727273,20.9454545" id="Stroke-1425" stroke="#F44958" stroke-width="2" stroke-linecap="round" stroke-linejoin="round"></path>
                    <path d="M10.4727273,20.9454545 L13.9636364,20.9454545" id="Stroke-1426" stroke="#F44958" stroke-width="2" stroke-linecap="round" stroke-linejoin="round"></path>
                    <path d="M25.5998836,26.7636364 L29.0907927,26.7636364" id="Stroke-1427" stroke="#F44958" stroke-width="2" stroke-linecap="round" stroke-linejoin="round"></path>
                    <path d="M10.4727273,26.7636364 L20.9454545,26.7636364" id="Stroke-1428" stroke="#F44958" stroke-width="2" stroke-linecap="round" stroke-linejoin="round"></path>
                    <path d="M18.6181818,45.3818182 L26.7636364,45.3818182" id="Stroke-1429" stroke="#F44958" stroke-width="2" stroke-linecap="round" stroke-linejoin="round"></path>
                    <path d="M12.8,45.3818182 L13.9636364,45.3818182" id="Stroke-1430" stroke="#F44958" stroke-width="2" stroke-linecap="round" stroke-linejoin="round"></path>
                    <path d="M23.2726109,51.2 L26.76352,51.2" id="Stroke-1431" stroke="#F44958" stroke-width="2" stroke-linecap="round" stroke-linejoin="round"></path>
                    <path d="M12.8,51.2 L18.6181818,51.2" id="Stroke-1432" stroke="#F44958" stroke-width="2" stroke-linecap="round" stroke-linejoin="round"></path>
                </g>
            </g>
        </g>
    </g>
</svg>