<?xml version="1.0" encoding="UTF-8"?>
<svg width="65px" height="64px" viewBox="0 0 65 64" version="1.1" xmlns="http://www.w3.org/2000/svg" xmlns:xlink="http://www.w3.org/1999/xlink">
    <!-- Generator: Sketch 48.2 (47327) - http://www.bohemiancoding.com/sketch -->
    <title>Advertising - Webby</title>
    <desc>Created with Sketch.</desc>
    <defs></defs>
    <g id="99.0-Home" stroke="none" stroke-width="1" fill="none" fill-rule="evenodd" transform="translate(-507.000000, -1464.000000)">
        <g id="Why-choseing-YNG?" transform="translate(0.000000, 1232.000000)">
            <g id="Benefit" transform="translate(450.000000, 232.000000)">
                <g id="Advertising---Webby" transform="translate(58.000000, 1.000000)">
                    <path d="M8.73437288,36.7285818 L8.73437288,57.9393455 C8.73437288,60.1793455 10.4428475,62.0120727 12.5309831,62.0120727 C14.6191186,62.0120727 16.3275932,60.1793455 16.3275932,57.9393455 L16.3275932,37.2359273 L8.73437288,36.7285818 Z" id="Fill-1" fill-opacity="0.24" fill="#F44958"></path>
                    <path d="M8.73437288,36.7285818 L8.73437288,57.9393455 C8.73437288,60.1793455 10.4428475,62.0120727 12.5309831,62.0120727 C14.6191186,62.0120727 16.3275932,60.1793455 16.3275932,57.9393455 L16.3275932,37.2359273 L8.73437288,36.7285818 Z" id="Stroke-2" stroke="#F44958" stroke-width="2"></path>
                    <path d="M4.33898305,32.7454545 L2.39837288,32.7454545 C1.07389831,32.7454545 0,31.5934545 0,30.1726545 L0,23.6818909 C0,22.2610909 1.07389831,21.1090909 2.39837288,21.1090909 L4.33898305,21.1090909 L4.33898305,32.7454545 Z" id="Fill-65" fill-opacity="0.24" fill="#599AC1"></path>
                    <path d="M4.33898305,32.7454545 L2.39837288,32.7454545 C1.07389831,32.7454545 0,31.5934545 0,30.1726545 L0,23.6818909 C0,22.2610909 1.07389831,21.1090909 2.39837288,21.1090909 L4.33898305,21.1090909 L4.33898305,32.7454545 Z" id="Stroke-66" stroke="#F44958" stroke-width="2"></path>
                    <path d="M21.751322,37.5757091 L7.21247458,36.6273455 C5.62549153,36.5063273 4.39538983,35.0890182 4.39538983,33.3819636 L4.39538983,20.4248727 C4.39538983,18.9424 5.46386441,17.7112727 6.84257627,17.6053818 L21.751322,16.6302545 L21.751322,37.5757091 Z" id="Fill-67" fill="#FFFFFF"></path>
                    <path d="M21.751322,37.5757091 L7.21247458,36.6273455 C5.62549153,36.5063273 4.39538983,35.0890182 4.39538983,33.3819636 L4.39538983,20.4248727 C4.39538983,18.9424 5.46386441,17.7112727 6.84257627,17.6053818 L21.751322,16.6302545 L21.751322,37.5757091 Z" id="Stroke-68" stroke="#F44958" stroke-width="2"></path>
                    <path d="M45.5582373,52.6715636 L24.2592542,41.2481455 C22.7221695,40.4231273 21.751322,38.7381818 21.751322,36.8938182 L21.751322,17.2167273 C21.751322,15.4224 22.6711864,13.7735273 24.1464407,12.9264 L45.444339,0.687272727 C48.4664407,-1.05003636 52.1242034,1.29934545 52.1242034,4.9776 L52.1242034,48.3184 C52.1242034,51.9361455 48.5749153,54.2901818 45.5582373,52.6715636 Z" id="Fill-69" fill="#FFFFFF"></path>
                    <path d="M45.5582373,52.6715636 L24.2592542,41.2481455 C22.7221695,40.4231273 21.751322,38.7381818 21.751322,36.8938182 L21.751322,17.2167273 C21.751322,15.4224 22.6711864,13.7735273 24.1464407,12.9264 L45.444339,0.687272727 C48.4664407,-1.05003636 52.1242034,1.29934545 52.1242034,4.9776 L52.1242034,48.3184 C52.1242034,51.9361455 48.5749153,54.2901818 45.5582373,52.6715636 Z" id="Stroke-70" stroke="#F44958" stroke-width="2"></path>
                    <path d="M53.1525424,21.1090909 L52.0677966,21.1090909 L52.0677966,32.7454545 L53.1525424,32.7454545 C55.5389831,32.7454545 57.4915254,30.6509091 57.4915254,28.0909091 L57.4915254,25.7636364 C57.4915254,23.2036364 55.5389831,21.1090909 53.1525424,21.1090909 Z" id="Fill-71" fill="#FFFFFF"></path>
                    <path d="M53.1525424,21.1090909 L52.0677966,21.1090909 L52.0677966,32.7454545 L53.1525424,32.7454545 C55.5389831,32.7454545 57.4915254,30.6509091 57.4915254,28.0909091 L57.4915254,25.7636364 C57.4915254,23.2036364 55.5389831,21.1090909 53.1525424,21.1090909 Z" id="Stroke-72" stroke="#F44958" stroke-width="2"></path>
                    <path d="M60.7457627,19.9454545 C62.2687458,22.2645818 62.8621017,24.6954182 62.9152542,26.9272727 C62.9879322,29.9131636 61.6677966,32.5290182 60.7457627,33.9090909 M8.73437288,56.0181818 L11.9886102,56.0181818 M8.73437288,51.3636364 L11.9886102,51.3636364 M8.73437288,46.7090909 L11.9886102,46.7090909 M8.73437288,42.0545455 L11.9886102,42.0545455" id="Stroke-73" stroke="#F44958" stroke-width="2" stroke-linecap="round"></path>
                    <path d="M45.3879322,0.687272727 L43.3898305,1.83461818 L43.3898305,51.5393455 L45.5018305,52.6715636 C48.5185085,54.2890182 52.0677966,51.9361455 52.0677966,48.3172364 L52.0677966,4.9776 C52.0677966,1.29934545 48.4100339,-1.05003636 45.3879322,0.687272727 Z" id="Fill-74" fill-opacity="0.24" fill="#F44958"></path>
                    <path d="M43.3898305,1.83461818 L43.3898305,51.5393455 L45.5018305,52.6715636 C48.5185085,54.2890182 52.0677966,51.9361455 52.0677966,48.3172364 L52.0677966,4.9776 C52.0677966,1.29934545 48.4100339,-1.05003636 45.3879322,0.687272727 L43.3898305,1.83461818 Z" id="Stroke-75" stroke="#F44958" stroke-width="2"></path>
                    <path d="M26.0338983,22.2727273 L26.0338983,19.736 C26.0338983,18.4548364 26.6912542,17.2760727 27.7445424,16.6709818 L32.5423729,14.1272727 M26.0338983,28.0909091 L26.0338983,25.7636364" id="Stroke-76" stroke="#F44958" stroke-width="2" stroke-linecap="round"></path>
                </g>
            </g>
        </g>
    </g>
</svg>