<?xml version="1.0" encoding="utf-8"?>
<!-- Generator: Adobe Illustrator 22.1.0, SVG Export Plug-In . SVG Version: 6.00 Build 0)  -->
<svg version="1.1" id="Capa_1" xmlns="http://www.w3.org/2000/svg" xmlns:xlink="http://www.w3.org/1999/xlink" x="0px" y="0px"
	 viewBox="0 0 512 512" style="enable-background:new 0 0 512 512;" xml:space="preserve">
<style type="text/css">
	.st0{fill:#F04E30;}
</style>
<g>
	<g>
		<g>
			<path class="st0" d="M365.3,0H62.7C30.2,0,3.9,26.4,3.8,58.8v301.9c0,32.5,26.4,58.8,58.8,58.8h92.5v-16.8H62.7
				c-23.2,0-42-18.8-42-42V218.5h54c5-0.4,8.7-4.7,8.4-9.7c-0.1-1-0.3-1.9-0.7-2.8c-7.5-17,0.3-36.8,17.3-44.3s36.8,0.3,44.3,17.3
				c3.8,8.6,3.8,18.4,0,27.1c-2.1,4.3-0.2,9.5,4.1,11.6c1.1,0.5,2.3,0.8,3.6,0.9h54V269c-2.8-0.5-5.6-0.7-8.4-0.7
				c-27.9,0-50.4,22.6-50.4,50.4c0,20.1,11.9,38.2,30.3,46.2l6.7-15.4c-17-7.4-24.8-27.2-17.4-44.2c5.3-12.3,17.5-20.2,30.9-20.2
				c4.6,0,9.2,1,13.4,2.8c4.3,1.9,9.2-0.1,11.1-4.3c0.5-1.1,0.7-2.2,0.7-3.4v-61.7h42.7c-0.5,2.8-0.7,5.6-0.7,8.4
				c0.1,23.9,16.9,44.6,40.3,49.4l3.4-16.5c-15.6-3.2-26.9-17-26.9-33c0-4.6,1-9.2,2.8-13.4c1.9-4.3-0.1-9.2-4.3-11.1
				c-1.1-0.5-2.2-0.7-3.4-0.7h-54V159c2.8,0.5,5.6,0.7,8.4,0.7c27.9,0,50.4-22.6,50.4-50.4s-22.6-50.4-50.4-50.4
				c-2.8,0-5.6,0.2-8.4,0.7V16.8h142.9c23.2,0,42,18.8,42,42v142.9h-54c-4.6,0-8.4,3.8-8.4,8.4c0,1.2,0.2,2.3,0.7,3.4
				c1.9,4.2,2.8,8.8,2.8,13.4h16.8c0-2.8-0.2-5.6-0.7-8.4h51.1c4.6,0,8.4-3.8,8.4-8.4V58.8C424.1,26.4,397.7,0,365.3,0z M230.8,75.6
				c18.6,0,33.6,15.1,33.6,33.6s-15.1,33.6-33.6,33.6c-4.6,0-9.2-1-13.4-2.8c-4.3-1.9-9.2,0.1-11.1,4.3c-0.5,1.1-0.7,2.2-0.7,3.4
				V201h-42.7c0.4-2.5,0.6-5.1,0.7-7.7c0-0.2,0-0.3,0-0.4s0-0.2,0-0.3c0-27.9-22.6-50.4-50.4-50.4s-50.4,22.6-50.4,50.4
				c0,0.1,0,0.2,0,0.3c0,0.1,0,0.3,0,0.4c0,2.6,0.2,5.2,0.7,7.7H20.7V58.8c0-23.2,18.8-42,42-42h142.9v54c0,4.6,3.8,8.4,8.4,8.4
				c1.2,0,2.3-0.2,3.4-0.7C221.6,76.6,226.2,75.6,230.8,75.6z"/>
		</g>
	</g>
	<g>
		<g>
			<path class="st0" d="M490.2,361.3l-70.7-48.7l-27.1-72.5c-1.6-4.4-6.5-6.6-10.8-4.9c-0.2,0.1-0.3,0.1-0.5,0.2l-54.6,24.2
				c-4.1,1.8-6.1,6.5-4.5,10.7c0.9,2.4,1.8,4.1,2.7,6s1.7,3.6,2.7,6.3c6.5,17.4-2.3,36.9-19.7,43.5c-17.4,6.5-36.8-2.3-43.3-19.7
				c-1.6-4.4-2.3-9-2.1-13.7c0.2-4.6-3.3-8.6-8-8.8c-1.2-0.1-2.3,0.1-3.4,0.5l-58.4,22c-4.3,1.6-6.5,6.5-4.9,10.8l21,56
				c-2.8,0.5-5.5,1.3-8.2,2.3c-26.2,9.7-39.5,38.9-29.7,65s38.9,39.5,65,29.7c2.7-1,5.3-2.2,7.8-3.7l15,40.1
				c1.6,4.3,6.5,6.6,10.8,4.9c0,0,0,0,0,0l83.3-31.4c5.2,11.2,14.9,19.8,26.6,23.8l5.3-16c-6.9-2.3-12.7-7.3-16.1-13.7l25.3-9.5
				c8.3,23.4,30.5,39,55.3,39v-16.8c-23.2-0.1-41.9-18.9-42-42c0-2.2-0.9-4.4-2.5-5.9l-29.3-29.3c-4.3-4.4-4.8-11.3-1.2-16.2
				c2.1-2.9,5.4-4.7,9-4.9c3.6-0.3,7.1,1,9.6,3.6l58.7,58.7l11.9-11.9l-17.4-17.4c4.3-12.8,4-26.7-0.7-39.3l-15.8-42.1l50.8,35
				c6.7,4.7,10.7,12.4,10.8,20.7v108.6h16.8V395.7C508.1,382,501.4,369.1,490.2,361.3z M429.8,388.1c2.3,6.2,3.2,12.8,2.5,19.4
				L405,380.2c-11.3-11.5-29.8-11.8-41.3-0.5c-11.5,11.3-11.8,29.8-0.5,41.3c0.2,0.2,0.3,0.3,0.5,0.5l26.6,26.6l-118.8,44.7
				l-16-42.8c-1-2.7-3.3-4.6-6-5.3c-0.6-0.1-1.2-0.2-1.8-0.2c-2.2,0-4.3,0.9-5.9,2.4c-13.5,12.8-34.8,12.1-47.5-1.4
				c-12.8-13.5-12.1-34.8,1.4-47.5c3.2-3,6.9-5.4,11-6.9c2.7-1,5.5-1.6,8.3-1.9c1.7-0.2,3.5-0.3,5.3-0.2c4.6,0.2,8.6-3.3,8.8-8
				c0.1-1.2-0.1-2.3-0.5-3.4l-22-58.6l40-15.1c5.3,27.4,31.7,45.3,59,40c2.8-0.5,5.5-1.3,8.2-2.3c26.1-9.9,39.2-39,29.5-65.1
				c-0.8-2.1-1.5-3.7-2.1-5.2l38.7-17.1L429.8,388.1z"/>
		</g>
	</g>
</g>
</svg>
