<?xml version="1.0" encoding="utf-8"?>
<!-- Generator: Adobe Illustrator 22.1.0, SVG Export Plug-In . SVG Version: 6.00 Build 0)  -->
<svg version="1.1" id="Layer_1" xmlns="http://www.w3.org/2000/svg" xmlns:xlink="http://www.w3.org/1999/xlink" x="0px" y="0px"
	 viewBox="0 0 128 128" style="enable-background:new 0 0 128 128;" xml:space="preserve">
<style type="text/css">
	.st0{fill:#34454E;stroke:#FFFFFF;stroke-miterlimit:10;}
	.st1{fill:#34454E;stroke:#FFFFFF;stroke-width:2;stroke-linecap:round;stroke-linejoin:round;}
</style>
<title>Group 4</title>
<desc>Created with Sketch.</desc>
<g id="_x39_9.0-Home" transform="translate(-874.000000, -2032.000000)">
	<g id="How-it-works" transform="translate(0.000000, 1800.000000)">
		<g id="Step-03" transform="translate(874.000000, 232.000000)">
			<g id="Group-4">
				<circle id="Oval" class="st0" cx="64" cy="64" r="17.5"/>
				<g id="_x30_3-Connect">
					<g id="Broken-Link---Webby" transform="translate(32.500000, 32.500000)">
						<path id="Path" class="st1" d="M30.7,27.1l3.1-3.1c1.4-1.4,3.8-1.4,5.2,0c1.4,1.4,1.4,3.8,0,5.2l-4,4c-1.4,1.4-3.8,1.4-5.2,0"
							/>
						<path id="Path_1_" class="st1" d="M31.9,36.4L29.3,39c-1.4,1.4-3.8,1.4-5.2,0c-1.4-1.4-1.4-3.8,0-5.2l3.8-3.8
							c1.4-1.4,3.8-1.4,5.2,0l0,0"/>
					</g>
				</g>
			</g>
		</g>
	</g>
</g>
</svg>
