<?xml version="1.0" encoding="utf-8"?>
<!-- Generator: Adobe Illustrator 22.1.0, SVG Export Plug-In . SVG Version: 6.00 Build 0)  -->
<svg version="1.1" id="Layer_1" xmlns="http://www.w3.org/2000/svg" xmlns:xlink="http://www.w3.org/1999/xlink" x="0px" y="0px"
	 viewBox="0 0 128 128" style="enable-background:new 0 0 128 128;" xml:space="preserve">
<style type="text/css">
	.st0{fill:#34454E;stroke:#FFFFFF;stroke-width:0.5;stroke-miterlimit:10;}
	.st1{fill:#34454E;fill-opacity:0.24;stroke:#FFFFFF;stroke-width:0.5;stroke-miterlimit:10;}
</style>
<title>Group 3</title>
<desc>Created with Sketch.</desc>
<g id="_x39_9.0-Home" transform="translate(-475.000000, -2032.000000)">
	<g id="How-it-works" transform="translate(0.000000, 1800.000000)">
		<g id="Step-02" transform="translate(475.000000, 232.000000)">
			<g id="Group-3">
				<ellipse class="st0" cx="63.9" cy="63.2" rx="17.4" ry="17.5"/>
				<g id="_x30_2-Grow">
					<g id="Write-Resumee---Webby" transform="translate(38.500000, 32.000000)">
						<path id="Stroke-11" class="st0" d="M26.2,37.5l-1.9,0.2l0.2-1.9l7.8-7.8v-2.6l-3-3H19.1c-0.3,0-0.6,0.3-0.6,0.6v16.3
							c0,0.3,0.3,0.6,0.6,0.6h12.6c0.3,0,0.6-0.3,0.6-0.6v-8L26.2,37.5z"/>
						<polygon id="Fill-889" class="st1" points="32.3,25.5 29.3,25.5 29.3,22.5 						"/>
						<polygon id="Stroke-890" class="st0" points="32.3,25.5 29.3,25.5 29.3,22.5 						"/>
						<polygon id="Fill-898" class="st1" points="26.2,37.5 24.3,37.7 24.6,35.8 33.2,27.2 34.8,28.9 						"/>
						<polygon id="Stroke-899" class="st0" points="26.2,37.5 24.3,37.7 24.6,35.8 33.2,27.2 34.8,28.9 						"/>
						<path id="Fill-900" class="st1" d="M34.8,28.9l-1.7-1.7l0.8-0.8c0.4-0.4,0.9-0.4,1.3,0l0.4,0.4c0.4,0.4,0.4,0.9,0,1.3
							L34.8,28.9z"/>
						<path id="Stroke-901" class="st0" d="M34.8,28.9l-1.7-1.7l0.8-0.8c0.4-0.4,0.9-0.4,1.3,0l0.4,0.4c0.4,0.4,0.4,0.9,0,1.3
							L34.8,28.9z"/>
						<path id="Stroke-902" class="st0" d="M23.9,38.2l0.4-0.4"/>
						<path id="Stroke-903" class="st0" d="M33.2,28.9L26,36.1"/>
						<polygon id="Stroke-905" class="st0" points="34,29.7 32.3,28.1 33.2,27.2 34.8,28.9 						"/>
						<polygon id="Stroke-906" class="st0" points="26,36.1 24.6,35.8 24.3,37.7 26.2,37.5 						"/>
						<path id="Stroke-1165" class="st0" d="M26.3,27.3c0-1.5-1.2-2.7-2.7-2.7s-2.7,1.2-2.7,2.7s1.2,2.7,2.7,2.7
							S26.3,28.8,26.3,27.3z"/>
						<path class="st1" d="M23.6,25.8c-0.5,0-0.9,0.3-0.9,0.8c0,0.4,0.4,0.8,0.9,0.8c0.5,0,0.9-0.4,0.9-0.8S24.1,25.8,23.6,25.8z"/>
						<path id="Stroke-1167" class="st0" d="M24.5,26.6c0,0.4-0.4,0.8-0.9,0.8c-0.5,0-0.9-0.3-0.9-0.8s0.4-0.8,0.9-0.8
							C24.1,25.8,24.5,26.1,24.5,26.6z"/>
						<path id="Fill-1168" class="st1" d="M24.1,28.5h-1c-0.6,0-1.1,0.3-1.1,0.9c0.5,0.4,1,0.6,1.7,0.6s1.2-0.2,1.7-0.6
							C25.2,28.8,24.7,28.5,24.1,28.5"/>
						<path id="Stroke-1169" class="st0" d="M24.1,28.5h-1c-0.6,0-1.1,0.3-1.1,0.9c0.5,0.4,1,0.6,1.7,0.6s1.2-0.2,1.7-0.6
							C25.2,28.8,24.7,28.5,24.1,28.5z"/>
						<path id="Stroke-1170" class="st0" d="M24.6,31.2h2.6"/>
						<path id="Stroke-1171" class="st0" d="M20.9,31.2h2.4"/>
						<path id="Stroke-1172" class="st0" d="M22.1,32.4h-1.2"/>
						<path id="Stroke-1173" class="st0" d="M26,32.4h-2.8"/>
						<path id="Stroke-1174" class="st0" d="M24.6,33.6h0.5"/>
						<path id="Stroke-1175" class="st0" d="M20.9,34.8h0.5"/>
						<path id="Stroke-1176" class="st0" d="M22.5,34.8H23"/>
						<path id="Stroke-1177" class="st0" d="M20.9,36.1h0.5"/>
						<path id="Stroke-1178" class="st0" d="M20.9,33.6h2.4"/>
					</g>
				</g>
			</g>
		</g>
	</g>
</g>
</svg>
