<?xml version="1.0" encoding="utf-8"?>
<!-- Generator: Adobe Illustrator 22.1.0, SVG Export Plug-In . SVG Version: 6.00 Build 0)  -->
<svg version="1.1" id="Layer_1" xmlns="http://www.w3.org/2000/svg" xmlns:xlink="http://www.w3.org/1999/xlink" x="0px" y="0px"
	 viewBox="0 0 128 128" style="enable-background:new 0 0 128 128;" xml:space="preserve">
<style type="text/css">
	.st0{fill:#34454E;stroke:#FFFFFF;stroke-miterlimit:10;}
	.st1{fill:#34454E;stroke:#FFFFFF;stroke-width:2;stroke-linecap:round;stroke-linejoin:round;}
</style>
<title>Group</title>
<desc>Created with Sketch.</desc>
<g id="_x39_9.0-Home" transform="translate(-77.000000, -2032.000000)">
	<g id="How-it-works" transform="translate(0.000000, 1800.000000)">
		<g id="Step-01" transform="translate(77.000000, 232.000000)">
			<g id="Group">
				<circle id="Oval" class="st0" cx="64.8" cy="64" r="17.5"/>
				<g id="_x30_1-Join">
					<g id="Press---Webby" transform="translate(41.500000, 32.000000)">
						<path id="Fill-701" class="st0" d="M27.2,31.2c0-0.6-0.5-1.1-1.1-1.1S25,30.6,25,31.2v-0.2V30c0-0.6-0.5-1.1-1.1-1.1
							s-1,0.5-1,1.1v0.2v-3.7c0-0.6-0.5-1.1-1-1.1s-1,0.5-1,1.1v7.1l-0.4-0.8c-0.5-1-1.8-1.4-2.6-1.1c-0.1,0.1-0.2,0.1-0.3,0.2
							c-0.3,0.2-0.2,0.5-0.3,0.5c0,0.1,1.5,1.7,2.4,3.3c0,0,0.8,1.2,1.6,2.1v0.9c0,1.3,1.1,2.1,2.4,2.1h2.7c1,0,2-0.5,2.2-1.6
							c0.1-0.2,0.2-0.6,0.3-0.8c0.2-0.3,0.5-1,0.5-1.9v-4c0-0.6-0.5-1.1-1.1-1.1c-0.6,0-1.1,0.5-1.1,1.1v-0.2L27.2,31.2L27.2,31.2z"
							/>
						<path id="Stroke-702" class="st1" d="M27.2,31.2c0-0.6-0.5-1.1-1.1-1.1S25,30.6,25,31.2v-0.2V30c0-0.6-0.5-1.1-1.1-1.1
							s-1,0.5-1,1.1v0.2v-3.7c0-0.6-0.5-1.1-1-1.1s-1,0.5-1,1.1v7.1l-0.4-0.8c-0.5-1-1.8-1.4-2.6-1.1c-0.1,0.1-0.2,0.1-0.3,0.2
							c-0.3,0.2-0.2,0.5-0.3,0.5c0,0.1,1.5,1.7,2.4,3.3c0,0,0.8,1.2,1.6,2.1v0.9c0,1.3,1.1,2.1,2.4,2.1h2.7c1,0,2-0.5,2.2-1.6
							c0.1-0.2,0.2-0.6,0.3-0.8c0.2-0.3,0.5-1,0.5-1.9v-4c0-0.6-0.5-1.1-1.1-1.1c-0.6,0-1.1,0.5-1.1,1.1v-0.2L27.2,31.2L27.2,31.2z"
							/>
						<path id="Stroke-1215" class="st1" d="M21.9,38.6c-0.3-0.2-0.5-0.5-0.7-0.8"/>
						<path id="Stroke-1216" class="st1" d="M21.1,34.1l-0.3-0.6"/>
						<path id="Stroke-1217" class="st1" d="M22.9,30.2v3.6"/>
						<path id="Stroke-1218" class="st1" d="M25,31.1v2.4"/>
						<path id="Stroke-1219" class="st1" d="M27.2,32.3v1.3"/>
						<path id="Stroke-1220" class="st1" d="M28.8,38.3c-0.2,0.3-0.4,0.4-1,0.6"/>
						<path id="Stroke-1221" class="st1" d="M22,24.2v-0.9"/>
						<path id="Stroke-1222" class="st1" d="M19.6,26.3h-0.9"/>
						<path id="Stroke-1223" class="st1" d="M25,26.3h-0.9"/>
						<path id="Stroke-1224" class="st1" d="M23.5,24.8l0.6-0.6"/>
						<path id="Stroke-1225" class="st1" d="M20.2,24.8l-0.6-0.6"/>
					</g>
				</g>
			</g>
		</g>
	</g>
</g>
</svg>
